<svg xmlns="http://www.w3.org/2000/svg" width="16" height="15.6" id="cup"><path d="M13.3 13.59c-.6-.04-1.3-.08-2.03-.1a6.87 6.87 0 001.67-2.25 1.56 1.56 0 00.75.43 1.67 1.67 0 00.38.05 1.56 1.56 0 00.83-.24 1.62 1.62 0 00-1.22-2.95 8.78 8.78 0 00.05-.88.56.56 0 00-.56-.56H2.82a.56.56 0 00-.55.56 7.73 7.73 0 002.45 5.84c-.74.02-1.43.06-2.03.1-2.09.15-2.7.29-2.7.93s.61.79 2.7.94c1.42.1 3.3.15 5.3.15s3.89-.05 5.3-.15c2.1-.15 2.7-.29 2.7-.94s-.6-.78-2.69-.93zm.27-4.29a.01.01 0 01.01-.01.94.94 0 011.4 1.03.94.94 0 01-.42.58.92.92 0 01-.7.11.94.94 0 01-.59-.42.58.58 0 00-.04-.05 7.95 7.95 0 00.34-1.24zM3.4 8.22h9.19c-.22 3.04-2.2 5.42-4.6 5.42S3.63 11.26 3.4 8.22zm3.56-2.28H7a.46.46 0 00.35-.18.45.45 0 00.07-.43 3.17 3.17 0 01.12-2.29A2.94 2.94 0 008.12.67 1.06 1.06 0 007.45 0a.45.45 0 00-.27.86.22.22 0 01.1.13 2.06 2.06 0 01-.49 1.56l-.02.03-.15.24c-.68 1.05-.88 1.88-.6 2.46a1.2 1.2 0 00.94.66zm2.39.08h.03a.43.43 0 00.33-.16.44.44 0 00.06-.41 1.79 1.79 0 01.07-1.28 1.9 1.9 0 00.36-1.58.79.79 0 00-.5-.5.43.43 0 00-.53.28.44.44 0 00.04.33.4.4 0 00.25.2.13.13 0 00-.05-.01 1.15 1.15 0 01-.28.82l-.03.04-.08.13a1.74 1.74 0 00-.38 1.66.88.88 0 00.7.48z" fill-rule="evenodd"/></svg>