<svg xmlns="http://www.w3.org/2000/svg" width="11.66" height="15.97" id="flask"><path d="M11.56 13.95L8.5 5.69V3.25a1.46 1.46 0 001-1.38v-.4A1.47 1.47 0 008 0H3.64a1.47 1.47 0 00-1.47 1.47v.4a1.46 1.46 0 001 1.38v2.44L.1 13.94a1.45 1.45 0 00.14 1.37 1.5 1.5 0 001.23.65h8.72a1.5 1.5 0 001.23-.65 1.45 1.45 0 00.13-1.36zm-8.1-1.87a.5.5 0 11.5.5.5.5 0 01-.5-.5zm3.24.43a.86.86 0 11-.87.87.87.87 0 01.87-.87zm-.74-1.9a.63.63 0 011.26 0 .63.63 0 01-1.26 0zM4.13 5.87V2.37h-.49a.5.5 0 01-.5-.5v-.4a.5.5 0 01.5-.5h4.38a.5.5 0 01.5.5v.4a.5.5 0 01-.5.5h-.5v3.49l.86 2.3-.03.04c-.64.66-5.3.74-5.3.74H3zM5.5 7.73a.69.69 0 00.68-.68.68.68 0 00-1.37 0 .68.68 0 00.69.68z" fill-rule="evenodd"/></svg>