<svg xmlns="http://www.w3.org/2000/svg" width="16" height="15.97" id="tv"><path d="M14.68 4H9l2.24-2.69a.53.53 0 00.1.02.67.67 0 10-.67-.66.65.65 0 00.05.22l-2.6 3.1h-.24L5.3.89a.67.67 0 10-.62.44.5.5 0 00.1-.02L7 3.99H1.33A1.33 1.33 0 000 5.32v9.32a1.33 1.33 0 001.33 1.33h13.34a1.33 1.33 0 001.34-1.33V5.32A1.33 1.33 0 0014.67 4zM12 13.3a1.33 1.33 0 01-1.33 1.33h-8a1.33 1.33 0 01-1.34-1.33V6.66a1.33 1.33 0 011.34-1.34h8A1.33 1.33 0 0112 6.66v6.65zm1.97-5.95a.95.95 0 11.95-.95.95.95 0 01-.95.95z"  fill-rule="evenodd"/></svg>